<?xml version="1.0" encoding="utf-8"?>
<svg id="svg8" version="1.1" viewBox="0 0 18.770926 19.408543" height="19.408543mm" width="18.770926mm" xmlns="http://www.w3.org/2000/svg">
  <g transform="translate(-171.0105,-253.60157)" id="layer1">
    <g id="g946">
      <path d="m 180.16209,256.96516 c 0.47257,-0.005 0.94378,0.002 1.42885,0.0341 l 0.0171,0.58549 -0.38086,0.0233 0.003,3.91759 c -0.004,0.2716 0.17876,0.48147 0.43099,0.66145 0.25222,0.17998 0.59024,0.34994 0.97771,0.56276 0.38389,0.21085 0.70397,0.36019 1.12655,0.49196 0.84157,0.26237 1.72876,0.11608 2.50527,0.31471 0.71752,0.18353 1.45301,0.37438 2.02003,0.79427 0.28163,0.20855 0.5231,0.48162 0.72296,0.78134 l -17.38965,0.0837 c 0.22154,-0.40028 0.51748,-0.76835 0.87695,-1.03455 0.56703,-0.4199 1.30251,-0.61125 2.02003,-0.79479 0.77652,-0.19863 1.6637,-0.0523 2.50528,-0.31471 0.42953,-0.13394 0.8374,-0.34922 1.19372,-0.62166 0.15876,-0.12139 0.37936,-0.2506 0.56689,-0.41031 0.18754,-0.15972 0.35387,-0.36491 0.35037,-0.63304 l -0.0496,-3.79873 -0.37931,-0.0233 0.0171,-0.58498 c 0.4901,-0.0139 0.96403,-0.03 1.4366,-0.0346 z" style="color:#000000;font-style:normal;font-variant:normal;font-weight:normal;font-stretch:normal;font-size:medium;line-height:normal;font-family:sans-serif;font-variant-ligatures:normal;font-variant-position:normal;font-variant-caps:normal;font-variant-numeric:normal;font-variant-alternates:normal;font-variant-east-asian:normal;font-feature-settings:normal;font-variation-settings:normal;text-indent:0;text-align:start;text-decoration:none;text-decoration-line:none;text-decoration-style:solid;text-decoration-color:#000000;letter-spacing:normal;word-spacing:normal;text-transform:none;writing-mode:lr-tb;direction:ltr;text-orientation:mixed;dominant-baseline:auto;baseline-shift:baseline;text-anchor:start;white-space:normal;shape-padding:0;shape-margin:0;inline-size:0;clip-rule:nonzero;display:inline;overflow:visible;visibility:visible;opacity:1;isolation:auto;mix-blend-mode:normal;color-interpolation:sRGB;color-interpolation-filters:linearRGB;solid-color:#000000;solid-opacity:1;vector-effect:none;fill:#ffffff;fill-opacity:1;fill-rule:nonzero;stroke:none;stroke-width:0.264583px;stroke-linecap:butt;stroke-linejoin:miter;stroke-miterlimit:4;stroke-dasharray:none;stroke-dashoffset:0;stroke-opacity:1;color-rendering:auto;image-rendering:auto;shape-rendering:auto;text-rendering:auto;enable-background:accumulate;stop-color:#000000;stop-opacity:1" id="path857-5"/>
      <path id="path857" style="color: rgb(0, 0, 0); font: medium sans-serif; font-feature-settings: normal; font-variation-settings: normal; text-indent: 0px; text-align: start; text-decoration: none solid rgb(0, 0, 0); letter-spacing: normal; word-spacing: normal; text-transform: none; writing-mode: lr-tb; direction: ltr; text-orientation: mixed; dominant-baseline: auto; baseline-shift: baseline; text-anchor: start; white-space: normal; shape-margin: 0px; inline-size: 0px; clip-rule: nonzero; display: inline; overflow: visible; visibility: visible; opacity: 1; isolation: auto; mix-blend-mode: normal; color-interpolation: srgb; color-interpolation-filters: linearrgb; vector-effect: none; fill-opacity: 1; fill-rule: nonzero; stroke: none; stroke-width: 0.999999px; stroke-linecap: butt; stroke-linejoin: miter; stroke-miterlimit: 4; stroke-dasharray: none; stroke-dashoffset: 0; stroke-opacity: 1; color-rendering: auto; image-rendering: auto; shape-rendering: auto; text-rendering: auto; stop-color: rgb(0, 0, 0); stop-opacity: 1;" d="m 678.08398,958.49414 a 1.6532951,1.6693465 0 0 0 -1.64453,1.66992 1.6532951,1.6693465 0 0 0 1.65235,1.66797 1.6532951,1.6693465 0 0 0 1.65429,-1.66797 1.6532951,1.6693465 0 0 0 -1.65429,-1.66992 1.6532951,1.6693465 0 0 0 -0.008,0 z m 3.25,5.07227 a 1.9422205,1.8298605 0 0 0 -1.9414,1.83007 1.9422205,1.8298605 0 0 0 1.9414,1.83008 1.9422205,1.8298605 0 0 0 1.94336,-1.83008 1.9422205,1.8298605 0 0 0 -1.94336,-1.83007 z m -0.42578,6.61718 c -1.9498,0.0239 -3.89448,0.10009 -5.91015,0.1543 l -0.40039,-0.006 c -0.19042,4.15462 -0.13818,2.29616 -0.19141,4.1543 l 1.47266,0.0918 0.17578,13.42774 c 0.008,0.59289 -0.36048,1.09973 -0.97266,1.62109 -0.61218,0.52137 -1.42348,1.00062 -2.09961,1.51758 -1.25579,0.96015 -2.69899,1.72041 -4.20312,2.18945 -2.8761,0.89668 -6.20628,0.35229 -9.41797,1.17383 -2.71151,0.69357 -5.62674,1.42355 -7.98242,3.16797 -1.75944,1.30291 -3.14077,3.13705 -4.06055,5.09375 -0.61137,1.3011 -0.78114,2.7378 -0.86524,4.086 -0.13759,2.2109 -0.31915,4.6532 0.58204,6.8496 0.78684,1.9177 2.32626,3.4283 3.875,4.6523 0.57841,0.4572 1.19525,0.8588 1.82812,1.2324 l -4.13281,6.8008 c -0.17235,0.2839 -0.0446,0.8209 0.25586,0.9629 0.23395,0.1104 0.52508,-0.1366 0.70703,-0.3203 l 5.99609,-6.0566 c 0.73499,0.3009 1.47669,0.5803 2.22071,0.8222 4.45167,1.4477 9.15301,1.8251 13.72461,2.293 2.74722,0.2809 7.17862,0.3364 8.46875,0.3496 l 0.6875,6.7031 c 0.0264,0.2572 0.0983,0.6325 0.3496,0.6934 0.32312,0.078 0.7589,-0.2587 0.80274,-0.5879 l 0.9043,-6.791 c 2.26987,0.013 7.50252,0.025 10.09765,-0.2402 4.42554,-0.453 8.34816,-0.3416 12.6836,-1.6817 l 4.83203,4.8809 c 0.18194,0.1837 0.47308,0.4326 0.70703,0.3222 0.30047,-0.142 0.4282,-0.679 0.25586,-0.9629 l -3.15625,-5.1953 c 1.61831,-0.669 3.18784,-1.4893 4.57031,-2.582 1.54873,-1.224 3.08817,-2.7346 3.875,-4.6523 0.90119,-2.1964 0.71964,-4.6387 0.58203,-6.8497 -0.0841,-1.3481 -0.25386,-2.7848 -0.86523,-4.0859 -0.91978,-1.9567 -2.29916,-3.79086 -4.0586,-5.09377 -2.35568,-1.74443 -5.27092,-2.4744 -7.98242,-3.16797 -3.2117,-0.82155 -6.54187,-0.27911 -9.41797,-1.17578 -1.53041,-0.47724 -2.65564,-1.00104 -4.07617,-1.78125 -1.48101,-0.81343 -2.74746,-1.45918 -3.5957,-2.06445 -0.84824,-0.60528 -1.21656,-1.09405 -1.20899,-1.67383 v -0.002 l -0.0117,-13.875 1.4668,-0.0918 -0.11914,-4.11328 -0.44922,-0.0332 c -2.03863,-0.15177 -3.99356,-0.18015 -5.94336,-0.15625 z m 0.0195,1.02344 c 1.7861,-0.0174 3.56707,0.008 5.40039,0.12891 l 0.0645,2.21289 -1.43946,0.0879 0.0117,14.80664 c -0.0134,1.02652 0.67562,1.81976 1.62891,2.5 0.95329,0.68024 2.23083,1.3226 3.69531,2.12695 1.45093,0.79691 2.66067,1.36133 4.25782,1.85938 3.18072,0.99165 6.53389,0.43872 9.46874,1.18945 2.71189,0.69367 5.49168,1.41496 7.63477,3.00195 1.06441,0.78823 1.97706,1.8203 2.73242,2.9531 l -65.72461,0.3164 c 0.83731,-1.5129 1.95582,-2.90402 3.31446,-3.91012 2.14309,-1.587 4.92287,-2.31024 7.63476,-3.00391 2.93487,-0.75073 6.28801,-0.1978 9.46875,-1.18945 1.62342,-0.50624 3.16499,-1.31992 4.51172,-2.34961 0.60002,-0.45877 1.43378,-0.94714 2.14258,-1.55078 0.70879,-0.60364 1.33747,-1.37917 1.32422,-2.39258 l -0.1875,-14.35742 -1.4336,-0.0879 0.0645,-2.21094 c 1.85236,-0.0527 3.64359,-0.11345 5.42968,-0.13086 z m 0.5586,12.58399 a 1.6532951,1.6693465 0 0 0 -1.64453,1.66992 1.6532951,1.6693465 0 0 0 1.65234,1.66797 1.6532951,1.6693465 0 0 0 1.6543,-1.66797 1.6532951,1.6693465 0 0 0 -1.6543,-1.66992 1.6532951,1.6693465 0 0 0 -0.008,0 z m -2.11133,8.95703 a 2.5842766,2.5361225 0 0 0 -2.58398,2.53515 2.5842766,2.5361225 0 0 0 2.58398,2.53711 2.5842766,2.5361225 0 0 0 2.58594,-2.53711 2.5842766,2.5361225 0 0 0 -2.58594,-2.53515 z m 8.63672,3.98047 a 1.8138091,1.7175007 0 0 0 -1.81445,1.71679 1.8138091,1.7175007 0 0 0 1.81445,1.71879 1.8138091,1.7175007 0 0 0 1.81445,-1.71879 1.8138091,1.7175007 0 0 0 -1.81445,-1.71679 z m 11.45312,1.05859 a 1.6532951,1.6693465 0 0 0 -1.64648,1.66992 1.6532951,1.6693465 0 0 0 1.6543,1.66997 1.6532951,1.6693465 0 0 0 1.65234,-1.66997 1.6532951,1.6693465 0 0 0 -1.65234,-1.66992 1.6532951,1.6693465 0 0 0 -0.008,0 z" transform="scale(0.26458333)"/>
    </g>
  </g>
</svg>