<?xml version="1.0" encoding="UTF-8"?>
<svg xmlns="http://www.w3.org/2000/svg" width="112" height="154" viewBox="0 0 146 177">
  <defs>
    
      <clipPath id="beakerInterior">
        <path d="M43 31H103V145C103 154 96 162 87 162H59C50 162 43 154 43 145Z"/>
      </clipPath>
      <linearGradient id="beakerWater" x1="0" y1="0" x2="0" y2="1">
        <stop offset="0" stop-color="#cfeafc" stop-opacity="0.92"/>
        <stop offset="1" stop-color="#86c0e6" stop-opacity="0.94"/>
      </linearGradient>
      <radialGradient id="iceFace" cx="34%" cy="24%" r="82%">
        <stop offset="0" stop-color="#fbfeff"/>
        <stop offset="1" stop-color="#a7d2ee"/>
      </radialGradient>
      <filter id="softIceBlur" x="-30%" y="-30%" width="160%" height="160%">
        <feGaussianBlur stdDeviation="0.85"/>
      </filter>
    
  </defs>
  <ellipse cx="73" cy="166" rx="34" ry="7" fill="#a3b5c2" fill-opacity="0.18"/>
  <g opacity="0.12">
  <g
      transform="translate(-14.812 -838.58)"
    >
    <g
      >
      <g
          transform="matrix(1.294 0 0 1.294 -14.25 -262.47)"
        >
        <g
            transform="translate(.24122 -.21897)"
          >
          <g
              transform="translate(-2.7285e-7 .0000034035)"
            >
            <path
                d="m134 856.82s-0.48426 0.43677-1.039 1.021c-0.55475 0.58422-1.1738 1.3058-1.4806 1.9232-0.23835 0.47966-0.37988 1.1556-0.46755 1.7333-0.0877 0.57769-0.12988 1.0447-0.12988 1.0447v0.0237 0.85477 0.87852 0.85476 3.4428 3.4428 3.4428 3.4428 3.4428 3.4428 3.4191 3.4428 3.4428 3.4428 3.4428 3.4428 3.4428 3.4428 3.4428 3.4428 3.4428 3.4428 3.4428 3.4428 3.4428 3.4428 3.4428 3.4428 3.4191 3.4428 3.4428 3.4428 3.4428 3.4428 3.4429 0.0238s0.0237 0.0207 0.0259 0.0469c0.002 0.0207-0.00074 0.0683 0 0.11872 0.00078 0.0533 0.003 0.11492 0 0.19002-0.004 0.0779-0.0145 0.16283-0.0259 0.26113-0.0115 0.099-0.0289 0.21195-0.052 0.3325-0.0229 0.1204-0.0658 0.23969-0.1039 0.37987s-0.0732 0.29308-0.12988 0.45107c-0.0566 0.15799-0.12895 0.3244-0.2078 0.49867-0.0788 0.17404-0.15513 0.35754-0.25975 0.54604-0.1046 0.1885-0.22958 0.3925-0.36365 0.59364-0.13405 0.20114-0.30033 0.40537-0.46755 0.61724-0.16719 0.21202-0.3414 0.42016-0.54548 0.64116-0.20407 0.22101-0.43074 0.43661-0.67535 0.66484-0.24463 0.22824-0.51629 0.47865-0.80523 0.71229-0.28893 0.23364-0.59819 0.45139-0.9351 0.68861-0.33692 0.23713-0.70235 0.47356-1.091 0.7122-0.3886 0.23881-0.80278 0.49756-1.2468 0.73613-0.44401 0.23841-0.89964 0.47611-1.4027 0.71229-0.50302 0.23618-1.0447 0.45655-1.6104 0.6886-0.5657 0.23198-1.1603 0.4626-1.7923 0.68853-0.63202 0.22577-1.2982 0.44702-2.0001 0.66484-0.70188 0.21783-1.4325 0.43327-2.2079 0.64109-0.77541 0.20781-1.5892 0.42134-2.4417 0.61732-0.85253 0.19589-1.7422 0.38765-2.6754 0.56987-0.93319 0.18207-1.9177 0.35595-2.9352 0.52244-1.0175 0.16633-2.0897 0.32606-3.1949 0.47483-1.1053 0.14877-2.232 0.27441-3.4287 0.40355-1.1967 0.12921-2.4487 0.24842-3.7404 0.35626-1.2917 0.10776-2.6358 0.20042-4.0261 0.2849-1.3903 0.0844-2.8194 0.15433-4.3119 0.21361-1.4925 0.0596-3.0513 0.11055-4.6495 0.14249-1.5983 0.0318-3.2537 0.0445-4.9612 0.0469-1.7084 0-3.3635 0-4.9612-0.0238-1.5982-0.027-3.1312-0.0636-4.6236-0.11873-1.4925-0.0548-2.9216-0.13327-4.3119-0.21377-1.3903-0.0804-2.7344-0.18056-4.0261-0.2849-1.2917-0.10442-2.5437-0.20591-3.7404-0.33234-1.1967-0.12644-2.3494-0.25709-3.4547-0.40371-1.1052-0.14654-2.1515-0.31017-3.169-0.47483-1.0174-0.16474-2.002-0.34148-2.9352-0.52236-0.93314-0.18103-1.823-0.37462-2.6754-0.56987-0.85243-0.19518-1.6663-0.38607-2.4417-0.59356-0.77534-0.20758-1.506-0.42318-2.2079-0.64108-0.70187-0.21791-1.3682-0.43852-2.0001-0.66485-0.63195-0.22633-1.2266-0.45584-1.7923-0.68852-0.56569-0.23285-1.1075-0.47507-1.6105-0.71237-0.50301-0.23722-0.9847-0.47261-1.4286-0.71221-0.44396-0.23976-0.85823-0.47221-1.2468-0.71244-0.38858-0.24008-0.75408-0.49717-1.091-0.73597-0.3369-0.23873-0.64622-0.4769-0.9351-0.71237-0.28891-0.23539-0.56061-0.45846-0.80523-0.68853-0.24465-0.23014-0.44532-0.46553-0.64938-0.68852-0.20408-0.22307-0.40422-0.42715-0.57145-0.64108-0.16721-0.21386-0.30745-0.43796-0.44158-0.64109-0.13411-0.20312-0.25898-0.40315-0.36365-0.59356-0.10467-0.19056-0.20685-0.37009-0.28573-0.54619-0.07887-0.17611-0.12514-0.3387-0.18183-0.49851-0.05669-0.16006-0.11778-0.30938-0.15585-0.45123-0.03809-0.14194-0.05491-0.28149-0.07793-0.40355-0.02302-0.12215-0.04044-0.23205-0.05195-0.3325s-0.02247-0.18421-0.02597-0.26114c-0.0035-0.0771-0.000998-0.13828 0-0.18993 0.000997-0.0517-0.0019-0.0947 0-0.11881 0.0019-0.0246 0-0.0238 0-0.0238v-0.0238-0.0238-3.4428-3.4428-3.4428-3.4428-3.4428-3.4428-3.4191-3.4428-3.4428-3.4428-3.4428-3.4428-3.4428-3.4428-3.4428-3.4428-3.4428-3.4428-3.4428-3.4428-3.4428-3.4428-3.4428-3.4428-3.4191-3.4428-3.4428-3.4428-3.4428-3.4428-3.4428-0.85477-0.87851-0.85477-0.0237s-0.03101-0.49804-0.12988-1.116c-0.09887-0.61791-0.26167-1.3442-0.5195-1.852-0.29151-0.57406-0.85751-1.2202-1.3767-1.757-0.51917-0.53681-0.98705-0.94974-0.98705-0.94974l-0.46755 0.42738s0.45855 0.40639 0.96108 0.92601c0.50253 0.51961 1.0483 1.1725 1.2728 1.6146 0.1908 0.37574 0.34635 1.0906 0.44158 1.6858 0.09315 0.5822 0.15412 1.0241 0.15585 1.0447 0.000038 0.00047 0 0.0237 0 0.0237v0.83102 0.87851 0.85477 3.4428 3.4428 3.4428 3.4428 3.4428 3.4428 3.4191 3.4428 3.4428 3.4428 3.4428 3.4428 3.4428 3.4428 3.4428 3.4428 3.4428 3.4428 3.4428 3.4428 3.4428 3.4428 3.4428 3.4428 3.4191 3.4428 3.4428 3.4428 3.4428 3.4428 3.4191 0.0238c-0.0012 0.0103-0.02432 0-0.02597 0.0238-0.0027 0.035 0.0012 0.0798 0 0.14233-0.0012 0.0628-0.0042 0.14813 0 0.23753 0.0041 0.0892 0.01298 0.19518 0.02597 0.30866 0.01299 0.11333 0.05233 0.24413 0.07793 0.37987 0.02559 0.13581 0.03607 0.27147 0.07793 0.42739 0.04185 0.156 0.09411 0.32439 0.15585 0.49867 0.06174 0.17404 0.14852 0.35563 0.23378 0.54604 0.08525 0.19033 0.17338 0.389 0.28573 0.59364 0.11235 0.20447 0.24663 0.42444 0.38963 0.641 0.14298 0.21655 0.29036 0.43819 0.46755 0.66484 0.17717 0.22673 0.38263 0.45385 0.59743 0.68861 0.21482 0.23467 0.44542 0.47157 0.70133 0.7122 0.25593 0.24088 0.5307 0.46745 0.8312 0.71245 0.30053 0.24485 0.63846 0.51266 0.98705 0.75973 0.34862 0.24715 0.71676 0.48874 1.1169 0.73605 0.40017 0.24739 0.81754 0.49025 1.2728 0.73605 0.45527 0.2458 0.94076 0.49366 1.4546 0.73605 0.5139 0.24238 1.0604 0.47523 1.6364 0.71228 0.57604 0.23698 1.1765 0.48246 1.8183 0.71237 0.64182 0.22983 1.3149 0.444 2.0261 0.66476 0.71112 0.22085 1.4758 0.43121 2.2598 0.64117 0.78405 0.2098 1.607 0.42023 2.4676 0.61724 0.86059 0.19716 1.7607 0.38741 2.7014 0.56987 0.94072 0.18239 1.9107 0.35651 2.9352 0.52244 1.0245 0.16577 2.0831 0.32733 3.1949 0.47483 1.1118 0.14742 2.2778 0.27656 3.4807 0.40363 1.2028 0.12707 2.443 0.2512 3.7404 0.35618 1.2974 0.10482 2.6565 0.20408 4.0521 0.2849 1.3956 0.0808 2.8404 0.1351 4.3378 0.18993 1.4975 0.0548 3.0467 0.092 4.6495 0.11873 1.6033 0.0262 3.2502 0.0469 4.9612 0.0469 1.7119 0 3.3844-0.0151 4.9872-0.0469s3.1521-0.0831 4.6495-0.14249c1.4974-0.0596 2.9423-0.1289 4.3378-0.21369 1.3956-0.0847 2.7287-0.17659 4.0261-0.28498 1.2974-0.10816 2.5636-0.22633 3.7664-0.35611 1.2028-0.12985 2.3429-0.27766 3.4547-0.42738 1.1118-0.14957 2.1705-0.30739 3.1949-0.47484 1.0244-0.16752 2.0205-0.33877 2.9612-0.52235 0.94068-0.18365 1.8409-0.37216 2.7014-0.56988 0.86054-0.1978 1.6836-0.4072 2.4676-0.61732 0.78401-0.21012 1.5228-0.44407 2.2339-0.66484 0.71111-0.22061 1.3844-0.4355 2.0261-0.66477 0.64172-0.22943 1.2682-0.45242 1.8442-0.68852 0.57599-0.23627 1.0966-0.49486 1.6105-0.73613 0.51384-0.24119 0.99942-0.468 1.4546-0.71229 0.4552-0.24445 0.89862-0.49025 1.2988-0.73605 0.40014-0.2458 0.76836-0.49072 1.1169-0.73604 0.34856-0.24541 0.66059-0.49311 0.96108-0.73613 0.30049-0.24294 0.57528-0.49724 0.8312-0.73597 0.25595-0.23881 0.5125-0.456 0.7273-0.68861 0.2148-0.23268 0.39426-0.46386 0.57146-0.68852 0.17718-0.22466 0.35047-0.4502 0.49352-0.66485 0.14304-0.21456 0.25123-0.41467 0.36365-0.61732 0.1124-0.20249 0.22641-0.40513 0.31171-0.59364 0.0853-0.18842 0.14601-0.3735 0.2078-0.54603 0.0618-0.17253 0.11395-0.34426 0.15585-0.49867 0.0419-0.15433 0.0783-0.29301 0.1039-0.42731 0.0257-0.13447 0.039-0.26766 0.052-0.37995 0.0131-0.113 0.0216-0.19843 0.0259-0.2849 0.004-0.089 0.00083-0.1765 0-0.23753-0.00083-0.062 0.003-0.10522 0-0.14233-0.002-0.0151 0.00083-0.0151 0-0.0238v-0.0238-3.4191-3.4428-3.4428-3.4428-3.4428-3.4428-3.4191-3.4428-3.4428-3.4428-3.4428-3.4428-3.4428-3.4428-3.4428-3.4428-3.4428-3.4428-3.4428-3.4428-3.4428-3.4428-3.4428-3.4428-3.4191-3.4428-3.4428-3.4428-3.4428-3.4428-3.4428-0.85477-0.87851-0.83102-0.0237c0.002-0.0207 0.0216-0.43159 0.1039-0.97348 0.0842-0.555 0.24291-1.2195 0.4156-1.5671 0.24113-0.48527 0.83836-1.2138 1.3767-1.7808 0.53833-0.56692 1.013-0.99722 1.013-0.99722l-0.46755-0.42739z"
                style="block-progression:tb;text-indent:0;color:#000000;text-transform:none;fill:#000000"
            />
            <g
                transform="matrix(.80299 0 0 .92363 6.8448 77.84)"
              >
              <path
                  style="stroke:#000000;stroke-width:.68616;fill:none"
                  d="m154.75 54.129c0 0.18516-0.11115 0.36812-0.32814 0.54845-0.21698 0.18033-0.53979 0.35801-0.9631 0.53261-0.42332 0.1746-0.94714 0.3461-1.5661 0.51407-0.619 0.16797-1.3332 0.33239-2.1372 0.49283-0.80404 0.16044-1.6979 0.31689-2.6764 0.4689-0.97842 0.15201-2.0414 0.29958-3.1835 0.44227-1.1422 0.14269-2.3635 0.28048-3.6588 0.41295-1.2952 0.13246-2.6644 0.25959-4.1021 0.38093s-2.9439 0.23689-4.5134 0.34621-3.2022 0.2124-4.8928 0.3088-3.4391 0.18611-5.2402 0.26869-3.6548 0.15802-5.5558 0.22588-3.8492 0.12814-5.8393 0.18038c-1.9902 0.05224-4.0222 0.09645-6.0909 0.13218s-4.174 0.06297-6.3106 0.08129c-2.1366 0.01831-4.3045 0.02769-6.4983 0.02769s-4.3617-0.0094-6.4983-0.02769c-2.1366-0.01831-4.2419-0.04556-6.3106-0.08129s-4.1008-0.07994-6.0909-0.13218-3.9384-0.11252-5.8393-0.18038c-1.901-0.06786-3.7546-0.1433-5.5558-0.22588-1.8011-0.08258-3.5496-0.17229-5.2402-0.26869s-3.3233-0.19948-4.8928-0.3088-3.0757-0.22487-4.5134-0.34621-2.8068-0.24846-4.1021-0.38093c-1.2952-0.13246-5.2323 5.783-6.2808 6.2992-1.0308 0.50751-0.83415 0.3648-1.6641-0.31549-0.79102-0.64841-0.76978-7.1474-1.5738-7.3078-0.80403-0.16044-1.5182-0.32486-2.1372-0.49283s-1.1428-0.33947-1.5661-0.51407c-0.42332-0.1746-0.74613-0.35228-0.96311-0.53261s-0.32814-0.36329-0.32814-0.54845 0.11115-0.36812 0.32814-0.54845c0.21698-0.18032 0.53979-0.35801 0.96311-0.53261s0.94713-0.3461 1.5661-0.51407c0.619-0.16797 1.3332-0.33239 2.1372-0.49283 0.80404-0.16044 1.6979-0.31689 2.6763-0.4689 0.97842-0.15201 2.0414-0.29958 3.1835-0.44227 1.1422-0.14269 2.3635-0.28048 3.6588-0.41295 1.2952-0.13246 2.6644-0.25959 4.1021-0.38093s2.9439-0.23689 4.5134-0.34621 3.2022-0.2124 4.8928-0.3088 3.4391-0.18611 5.2402-0.26869 3.6548-0.15802 5.5558-0.22588 3.8492-0.12814 5.8393-0.18038 4.0222-0.09645 6.0909-0.13218 4.174-0.06297 6.3106-0.08129c2.1366-0.01831 4.3045-0.02769 6.4983-0.02769s4.3617 0.0094 6.4983 0.02769c2.1366 0.01831 4.2419 0.04556 6.3106 0.08129s4.1008 0.07994 6.0909 0.13218 3.9384 0.11252 5.8393 0.18038c1.901 0.06786 3.7546 0.1433 5.5558 0.22588 1.8011 0.08258 3.5496 0.17229 5.2402 0.26869s3.3233 0.19948 4.8928 0.3088 3.0757 0.22487 4.5134 0.34621 2.8068 0.24846 4.1021 0.38093c1.2952 0.13246 2.5166 0.27026 3.6588 0.41295s2.2051 0.29026 3.1835 0.44227c0.97842 0.15201 1.8723 0.30846 2.6764 0.4689 0.80403 0.16044 1.5182 0.32486 2.1372 0.49283s1.1428 0.33947 1.5661 0.51407c0.42331 0.1746 0.74612 0.35228 0.9631 0.53261 0.21699 0.18033 0.32814 0.36329 0.32814 0.54845z"
                  transform="matrix(1.0946 0 0 1 -10.417 789.03)"
              />
              <path
                  style="stroke:#000000;stroke-width:.73578;fill:none"
                  d="m158.85 44.259c0 0.1587-0.11136 0.31552-0.32875 0.47008-0.2174 0.15456-0.54081 0.30685-0.96493 0.4565-0.42411 0.14965-0.94892 0.29664-1.5691 0.44061-0.62017 0.14396-1.3357 0.28489-2.1412 0.42241-0.80555 0.13751-1.7011 0.2716-2.6814 0.40189-0.98026 0.13029-2.0452 0.25677-3.1895 0.37907s-2.368 0.2404-3.6657 0.35394c-1.2977 0.11353-2.6694 0.22249-4.1098 0.32649s-2.9495 0.20304-4.5219 0.29674-3.2082 0.18205-4.902 0.26467-3.4456 0.15951-5.2501 0.23029-3.6617 0.13544-5.5662 0.1936-3.8564 0.10982-5.8503 0.1546-4.0298 0.08267-6.1024 0.11329-4.1819 0.05397-6.3225 0.06967-4.3126 0.02374-6.5105 0.02374c-2.198 0-4.3699-0.008-6.5105-0.02374-2.1406-0.0157-4.2499-0.03905-6.3225-0.06967s-4.1085-0.06851-6.1024-0.11329-3.9458-0.09644-5.8503-0.1546-3.7617-0.12282-5.5662-0.1936-3.5563-0.14767-5.2501-0.23029-3.3296-0.17097-4.902-0.26467-3.0815-0.19274-4.5219-0.29674-2.8121-0.21296-4.1098-0.32649-1.5977-0.10393-2.742-0.22623-4.9802 6.8391-5.9604 6.7089c-0.98026-0.13029-0.78921-7.6077-1.5948-7.7452-0.80555-0.13751-0.76044-0.15073-1.3806-0.2947-0.62017-0.14396-1.145-0.29096-1.5691-0.44061-0.42411-0.14964-0.74753-0.30194-0.96492-0.4565s-0.32875-0.31138-0.32875-0.47008 0.11136-0.31552 0.32875-0.47008 0.54081-0.30685 0.96492-0.4565c0.42411-0.14964 0.94892-0.29664 1.5691-0.44061 0.62017-0.14396 1.3357-0.28489 2.1412-0.4224 0.80555-0.13751 1.7011-0.2716 2.6814-0.40189 0.98026-0.13029 2.0452-0.25677 3.1895-0.37907s2.368-0.2404 3.6657-0.35394c1.2977-0.11353 2.6694-0.22249 4.1098-0.32649s2.9495-0.20304 4.5219-0.29674c1.5724-0.09369 3.2082-0.18205 4.902-0.26467s3.4456-0.15951 5.2501-0.23029 3.6617-0.13544 5.5662-0.1936 3.8564-0.10982 5.8503-0.1546 4.0298-0.08267 6.1024-0.11329 4.1819-0.05397 6.3225-0.06967 4.3126-0.02374 6.5105-0.02374c2.198 0 4.3699 0.008 6.5105 0.02374 2.1406 0.0157 4.2499 0.03905 6.3225 0.06967s4.1085 0.06851 6.1024 0.11329 3.9458 0.09644 5.8503 0.1546 3.7617 0.12282 5.5662 0.1936 3.5563 0.14767 5.2501 0.23029 3.3296 0.17097 4.902 0.26467 3.0815 0.19274 4.5219 0.29674 2.8121 0.21296 4.1098 0.32649 2.5214 0.23164 3.6657 0.35394 2.2093 0.24878 3.1895 0.37907c0.98027 0.13029 1.8758 0.26438 2.6814 0.40189 0.80555 0.13751 1.5211 0.27844 2.1412 0.4224 0.62016 0.14396 1.145 0.29096 1.5691 0.44061 0.42412 0.14965 0.74753 0.30194 0.96493 0.4565 0.21739 0.15456 0.32875 0.31138 0.32875 0.47008z"
                  transform="matrix(1.0578 0 0 .9 -11.265 803.34)"
              />
            </g
            >
            <path
                d="m30.226 865.52c-0.11861-0.18843 1.0331-1.1615 2.7451-0.82542 1.5778 0.30973 1.738 3.4122 1.738 3.4122"
                style="stroke:#000000;stroke-width:.61825;fill:none"
            />
          </g
          >
          <g
              style="fill:#a8c7ff"
              transform="matrix(3.0743 0 0 .64919 -113.67 320.57)"
            >
            <path
                d="m79.336 953.24v50.022s0.67518 22.32-16.784 22.461c-17.459 0.1413-16.784-22.461-16.784-22.461v-50.022"
                style="stroke:#000000;stroke-width:.43763;fill:#a8c7ff"
            />
            <path
                style="stroke:#000000;stroke-width:.21147;fill:#a8c7ff"
                d="m78.159 17.133c0 1.3965-5.5577 2.5287-12.413 2.5287-6.8558 0-12.413-1.1321-12.413-2.5287 0-1.3965 5.5577-2.5287 12.413-2.5287 6.8558 0 12.413 1.1321 12.413 2.5287z"
                transform="matrix(1.3536 0 0 2.7328 -26.44 906.28)"
            />
          </g
          >
        </g
        >
      </g
      >
    </g
    >
  </g
  >
  </g>

  <g clip-path="url(#beakerInterior)">
        <rect x="43" y="112" width="60" height="34" rx="7" fill="url(#beakerWater)" opacity="0.92">
          <animate attributeName="y" values="112;108;101;95;90" dur="5.8s" fill="freeze"/>
          <animate attributeName="height" values="34;38;45;51;56" dur="5.8s" fill="freeze"/>
        </rect>
        <ellipse cx="73" cy="112" rx="28" ry="5.2" fill="#ecf8ff" opacity="0.54">
          <animate attributeName="cy" values="112;108;101;95;90" dur="5.8s" fill="freeze"/>
          <animate attributeName="rx" values="27;28;29;29;28" dur="5.8s" fill="freeze"/>
        </ellipse>
        <g opacity="0.96">
          
    <g transform="translate(45 103) rotate(-9 7.36 18.400000000000002)" opacity="0.96">
      <path d="M0 7.36L7.36 0L14.72 7.36L7.36 14.72" fill="url(#iceFace)" stroke="#7fb6dd" stroke-width="1.3800000000000001" stroke-linejoin="round"/>
      <path d="M0 7.36V25.76L7.36 33.120000000000005V14.72" fill="#d4eefb" stroke="#7fb6dd" stroke-width="1.1316" stroke-linejoin="round"/>
      <path d="M14.72 7.36V25.76L7.36 33.120000000000005V14.72" fill="#a9d3ef" stroke="#7fb6dd" stroke-width="1.1316" stroke-linejoin="round"/>
      <path d="M1.9136000000000002 6.6240000000000006L7.0656 2.3552" fill="none" stroke="#ffffff" stroke-opacity="0.62" stroke-width="1.2696" stroke-linecap="round"/>
      <path d="M7.654400000000001 3.3856L12.9536 7.5072" fill="none" stroke="#effaff" stroke-opacity="0.46" stroke-width="0.966" stroke-linecap="round"/>
    </g>
  
          <animateTransform attributeName="transform" type="translate" values="0 0;-4 2;-9 7;-12 10;-14 11" dur="5.8s" fill="freeze"/>
          <animateTransform attributeName="transform" additive="sum" type="scale" values="1 1;0.95 0.95;0.78 0.71;0.5 0.42;0.24 0.18" dur="5.8s" fill="freeze"/>
          <animateTransform attributeName="transform" additive="sum" type="rotate" values="0;1;4;6;7" dur="5.8s" fill="freeze"/>
          <animate attributeName="opacity" values="0.96;0.86;0.54;0.12;0.02" dur="5.8s" fill="freeze"/>
        </g>
        <g opacity="0.95">
          
    <g transform="translate(61 97) rotate(7 7.2 18)" opacity="0.95">
      <path d="M0 7.2L7.2 0L14.4 7.2L7.2 14.4" fill="url(#iceFace)" stroke="#7fb6dd" stroke-width="1.35" stroke-linejoin="round"/>
      <path d="M0 7.2V25.2L7.2 32.4V14.4" fill="#d4eefb" stroke="#7fb6dd" stroke-width="1.107" stroke-linejoin="round"/>
      <path d="M14.4 7.2V25.2L7.2 32.4V14.4" fill="#a9d3ef" stroke="#7fb6dd" stroke-width="1.107" stroke-linejoin="round"/>
      <path d="M1.872 6.48L6.912 2.3040000000000003" fill="none" stroke="#ffffff" stroke-opacity="0.62" stroke-width="1.2420000000000002" stroke-linecap="round"/>
      <path d="M7.488 3.3120000000000003L12.672 7.344" fill="none" stroke="#effaff" stroke-opacity="0.46" stroke-width="0.945" stroke-linecap="round"/>
    </g>
  
          <animateTransform attributeName="transform" type="translate" values="0 0;2 2;8 7;14 10;17 11" dur="5.8s" fill="freeze"/>
          <animateTransform attributeName="transform" additive="sum" type="scale" values="1 1;0.95 0.93;0.8 0.73;0.52 0.44;0.26 0.18" dur="5.8s" fill="freeze"/>
          <animateTransform attributeName="transform" additive="sum" type="rotate" values="0;-1;-3;-5;-6" dur="5.8s" fill="freeze"/>
          <animate attributeName="opacity" values="0.95;0.86;0.56;0.14;0.02" dur="5.8s" fill="freeze"/>
        </g>
        <g opacity="0.92">
          
    <g transform="translate(55 83) rotate(-4 6.08 15.2)" opacity="0.92">
      <path d="M0 6.08L6.08 0L12.16 6.08L6.08 12.16" fill="url(#iceFace)" stroke="#7fb6dd" stroke-width="1.1400000000000001" stroke-linejoin="round"/>
      <path d="M0 6.08V21.28L6.08 27.36V12.16" fill="#d4eefb" stroke="#7fb6dd" stroke-width="0.9348000000000001" stroke-linejoin="round"/>
      <path d="M12.16 6.08V21.28L6.08 27.36V12.16" fill="#a9d3ef" stroke="#7fb6dd" stroke-width="0.9348000000000001" stroke-linejoin="round"/>
      <path d="M1.5808 5.472L5.8368 1.9456" fill="none" stroke="#ffffff" stroke-opacity="0.62" stroke-width="1.0488000000000002" stroke-linecap="round"/>
      <path d="M6.3232 2.7968L10.700800000000001 6.2016" fill="none" stroke="#effaff" stroke-opacity="0.46" stroke-width="0.798" stroke-linecap="round"/>
    </g>
  
          <animateTransform attributeName="transform" type="translate" values="0 0;2 4;3 10;4 14;4 16" dur="5.8s" fill="freeze"/>
          <animateTransform attributeName="transform" additive="sum" type="scale" values="1 1;0.86 0.82;0.58 0.48;0.22 0.16;0.04 0.03" dur="5.8s" fill="freeze"/>
          <animateTransform attributeName="transform" additive="sum" type="rotate" values="0;2;5;7;9" dur="5.8s" fill="freeze"/>
          <animate attributeName="opacity" values="0.92;0.74;0.28;0.04;0" dur="5.8s" fill="freeze"/>
        </g>
        <g opacity="0" filter="url(#softIceBlur)">
          
    <g transform="translate(43 101) rotate(-10 8.58 6.63)" opacity="0.82">
      <path d="M2 5.5691999999999995C3 2.1216 3.7752 1 7.207199999999999 1H11.325600000000001C15.1008 1 17.16 2.3868 17.16 5.5691999999999995V8.3538C17.16 11.6688 14.414399999999999 13.26 10.6392 13.26H5.148C2.0592 13.26 0 11.403599999999999 0 8.8842V6.099600000000001C0 5.967 1 5.8344 2 5.5691999999999995Z" fill="#ebf9ff" fill-opacity="0.82" stroke="#98c8e8" stroke-width="1.209"/>
      <path d="M3.7752 5.0388C6.1776 3.7128 9.9528 3.4476 13.0416 4.5084" fill="none" stroke="#ffffff" stroke-opacity="0.58" stroke-width="1.209" stroke-linecap="round"/>
      <path d="M4.8048 8.2212C7.207199999999999 9.282 9.9528 9.5472 13.0416 8.7516" fill="none" stroke="#eff9ff" stroke-opacity="0.34" stroke-width="0.8969999999999999" stroke-linecap="round"/>
    </g>
  
          <animateTransform attributeName="transform" type="translate" values="0 0;-1 0;-5 2;-7 4;-8 5" dur="5.8s" fill="freeze"/>
          <animate attributeName="opacity" values="0;0.1;0.48;0.2;0.01" dur="5.8s" fill="freeze"/>
        </g>
        <g opacity="0" filter="url(#softIceBlur)">
          
    <g transform="translate(72 98) rotate(8 8.14 6.29)" opacity="0.8">
      <path d="M2 5.2836C3 2.0128 3.5816000000000003 1 6.8376 1H10.744800000000001C14.326400000000001 1 16.28 2.2643999999999997 16.28 5.2836V7.9254C16.28 11.0704 13.6752 12.58 10.0936 12.58H4.884C1.9536 12.58 0 10.8188 0 8.428600000000001V5.7868C0 5.6610000000000005 1 5.5352 2 5.2836Z" fill="#ebf9ff" fill-opacity="0.82" stroke="#98c8e8" stroke-width="1.147"/>
      <path d="M3.5816000000000003 4.7804C5.8608 3.5224 9.4424 3.2708 12.372800000000002 4.277200000000001" fill="none" stroke="#ffffff" stroke-opacity="0.58" stroke-width="1.147" stroke-linecap="round"/>
      <path d="M4.558400000000001 7.7996C6.8376 8.806 9.4424 9.057599999999999 12.372800000000002 8.302800000000001" fill="none" stroke="#eff9ff" stroke-opacity="0.34" stroke-width="0.851" stroke-linecap="round"/>
    </g>
  
          <animateTransform attributeName="transform" type="translate" values="0 0;1 1;5 3;8 5;10 6" dur="5.8s" fill="freeze"/>
          <animate attributeName="opacity" values="0;0.08;0.48;0.22;0.01" dur="5.8s" fill="freeze"/>
        </g>
        <g opacity="0" filter="url(#softIceBlur)">
          
    <g transform="translate(60 90) rotate(-1 5.279999999999999 4.08)" opacity="0.68">
      <path d="M2 3.4272C3 1.3056 2.3232 1 4.435199999999999 1H6.9696C9.2928 1 10.559999999999999 1.4687999999999999 10.559999999999999 3.4272V5.1408000000000005C10.559999999999999 7.1808000000000005 8.870399999999998 8.16 6.547199999999999 8.16H3.1679999999999997C1.2671999999999999 8.16 0 7.0176 0 5.4672V3.7536C0 3.672 1 3.5904000000000003 2 3.4272Z" fill="#ebf9ff" fill-opacity="0.82" stroke="#98c8e8" stroke-width="0.744"/>
      <path d="M2.3232 3.1008C3.801599999999999 2.2848 6.124799999999999 2.1216 8.025599999999999 2.7744000000000004" fill="none" stroke="#ffffff" stroke-opacity="0.58" stroke-width="0.744" stroke-linecap="round"/>
      <path d="M2.9568 5.0592C4.435199999999999 5.712 6.124799999999999 5.8751999999999995 8.025599999999999 5.3856" fill="none" stroke="#eff9ff" stroke-opacity="0.34" stroke-width="0.5519999999999999" stroke-linecap="round"/>
    </g>
  
          <animateTransform attributeName="transform" type="translate" values="0 0;0 1;0 3;1 4;1 5" dur="5.8s" fill="freeze"/>
          <animate attributeName="opacity" values="0;0.02;0.14;0.1;0" dur="5.8s" fill="freeze"/>
        </g>
        <g opacity="0" filter="url(#softIceBlur)">
          
    <g opacity="0.72">
      <path d="M52 98c5-6 13-8 22-7 8 1 13 5 14 10 1 6-2 12-8 16-6 4-15 5-22 3-7-2-10-8-9-13 0-4 1-7 3-9Z" fill="#eaf8ff" fill-opacity="0.82" stroke="#96c7e7" stroke-width="1.7"/>
      <path d="M70 89c5-3 12-4 18-2 6 2 9 7 8 12-2 5-7 10-14 12-7 2-14 1-18-3-4-3-4-9-2-13 2-3 4-5 8-6Z" fill="#e6f7ff" fill-opacity="0.72" stroke="#92c3e3" stroke-width="1.55"/>
      <path d="M60 93c6 3 12 5 19 5" fill="none" stroke="#ffffff" stroke-opacity="0.58" stroke-width="1.8" stroke-linecap="round"/>
      <path d="M75 97c3 2 7 3 12 3" fill="none" stroke="#eff9ff" stroke-opacity="0.44" stroke-width="1.45" stroke-linecap="round"/>
    </g>
  
          <animateTransform attributeName="transform" type="translate" values="0 0;0 0;1 2;1 4;1 5" dur="5.8s" fill="freeze"/>
          <animate attributeName="opacity" values="0;0;0.02;0.08;0.04" dur="5.8s" fill="freeze"/>
        </g>
        <g opacity="0" filter="url(#softIceBlur)">
          
    <g opacity="0.74">
      <path d="M53 98c5-3 11-4 18-4 8 0 14 2 18 5 4 4 4 8 1 11-4 4-10 6-18 6-7 0-14-2-19-5-4-3-5-7-2-10 1-1 2-2 2-3Z" fill="#eaf8ff" fill-opacity="0.34" stroke="#b4d7ee" stroke-width="1.05"/>
      <path d="M59 97c3 2 7 3 12 3 6 1 12 0 17-2" fill="none" stroke="#ffffff" stroke-opacity="0.34" stroke-width="1.2" stroke-linecap="round"/>
      <ellipse cx="63" cy="103" rx="8" ry="5" fill="#f3fbff" fill-opacity="0.22"/>
      <ellipse cx="81" cy="101" rx="7" ry="4.5" fill="#eefaff" fill-opacity="0.2"/>
      <path d="M66 92c3-2 7-3 10-2 4 0 7 2 7 5 0 3-2 5-6 6-4 1-8 1-11-1-3-1-5-3-4-5 0-1 2-2 4-3Z" fill="#f5fcff" fill-opacity="0.28" stroke="#c5e1f2" stroke-width="0.95"/>
    </g>
  
          <animateTransform attributeName="transform" type="translate" values="0 0;0 0;0 0;0 1;0 2" dur="5.8s" fill="freeze"/>
          <animate attributeName="opacity" values="0;0;0.06;0.28;0.64" dur="5.8s" fill="freeze"/>
        </g>
        <g opacity="0" filter="url(#softIceBlur)">
          
    <g opacity="0.48">
      <path d="M60 88c4-3 10-4 16-3 6 1 10 4 10 8 0 4-3 8-8 10-5 2-11 3-16 1-5-1-8-5-7-9 0-3 2-5 5-7Z" fill="#eefaff" fill-opacity="0.7" stroke="#9ecbeb" stroke-width="1.45"/>
      <path d="M65 92c4 2 8 3 14 3" fill="none" stroke="#ffffff" stroke-opacity="0.52" stroke-width="1.45" stroke-linecap="round"/>
    </g>
  
          <animateTransform attributeName="transform" type="translate" values="0 0;0 0;0 -1;0 -2;0 -2" dur="5.8s" fill="freeze"/>
          <animate attributeName="opacity" values="0;0;0.04;0.18;0.32" dur="5.8s" fill="freeze"/>
        </g>
        <path d="M58 97c4 7 6 12 7 17" fill="none" stroke="#eefaff" stroke-width="2.2" stroke-linecap="round" opacity="0">
          <animate attributeName="opacity" values="0;0.12;0.34;0.24;0.08" dur="5.8s" fill="freeze"/>
        </path>
        <path d="M76 93c3 7 4 12 5 17" fill="none" stroke="#e8f7ff" stroke-width="2" stroke-linecap="round" opacity="0">
          <animate attributeName="opacity" values="0;0.08;0.26;0.2;0.07" dur="5.8s" fill="freeze"/>
        </path>
        <path d="M67 88c2 5 3 10 3 16" fill="none" stroke="#f3fbff" stroke-width="1.6" stroke-linecap="round" opacity="0">
          <animate attributeName="opacity" values="0;0.04;0.18;0.22;0.08" dur="5.8s" fill="freeze"/>
        </path>
        <path d="M63 86c2 4 4 8 5 14" fill="none" stroke="#f7fdff" stroke-width="1.6" stroke-linecap="round" opacity="0">
          <animate attributeName="opacity" values="0;0;0.16;0.24;0.1" dur="5.8s" fill="freeze"/>
        </path>
        <path d="M50 116c8 4 18 6 29 6 9 0 17-2 23-5" fill="none" stroke="#eff9ff" stroke-width="3" stroke-linecap="round" opacity="0.12">
          <animate attributeName="opacity" values="0.12;0.22;0.38;0.56;0.66" dur="5.8s" fill="freeze"/>
        </path>
        <path d="M56 126c10 4 18 5 25 4" fill="none" stroke="#dff0fb" stroke-width="2.5" stroke-linecap="round" opacity="0.04">
          <animate attributeName="opacity" values="0.04;0.14;0.26;0.38;0.46" dur="5.8s" fill="freeze"/>
        </path>
        <path d="M48 110c7 2 16 3 25 3 11 0 20-1 27-3" fill="none" stroke="#f8fdff" stroke-width="1.8" stroke-linecap="round" opacity="0.08">
          <animate attributeName="opacity" values="0.08;0.14;0.22;0.3;0.34" dur="5.8s" fill="freeze"/>
        </path>
      </g>
  <path d="M51 34C54 81 55 121 56 152" fill="none" stroke="#f8fcfe" stroke-opacity="0.4" stroke-width="4.8" stroke-linecap="round"/>
  <g opacity="0.98">
  <g
      transform="translate(-14.812 -838.58)"
    >
    <g
      >
      <g
          transform="matrix(1.294 0 0 1.294 -14.25 -262.47)"
        >
        <g
            transform="translate(.24122 -.21897)"
          >
          <path
              style="block-progression:tb;text-indent:0;color:#000000;text-transform:none;fill:#000000"
              d="m134 856.82s-0.48426 0.43677-1.039 1.021c-0.55475 0.58422-1.1738 1.3058-1.4806 1.9232-0.23835 0.47966-0.37988 1.1556-0.46755 1.7333-0.0877 0.57769-0.12988 1.0447-0.12988 1.0447v0.0237 0.85477 0.87852 0.85476 3.4428 3.4428 3.4428 3.4428 3.4428 3.4428 3.4191 3.4428 3.4428 3.4428 3.4428 3.4428 3.4428 3.4428 3.4428 3.4428 3.4428 3.4428 3.4428 3.4428 3.4428 3.4428 3.4428 3.4428 3.4191 3.4428 3.4428 3.4428 3.4428 3.4428 3.4429 0.0238s0.0237 0.0207 0.0259 0.0469c0.002 0.0207-0.00074 0.0683 0 0.11872 0.00078 0.0533 0.003 0.11492 0 0.19002-0.004 0.0779-0.0145 0.16283-0.0259 0.26113-0.0115 0.099-0.0289 0.21195-0.052 0.3325-0.0229 0.1204-0.0658 0.23969-0.1039 0.37987s-0.0732 0.29308-0.12988 0.45107c-0.0566 0.15799-0.12895 0.3244-0.2078 0.49867-0.0788 0.17404-0.15513 0.35754-0.25975 0.54604-0.1046 0.1885-0.22958 0.3925-0.36365 0.59364-0.13405 0.20114-0.30033 0.40537-0.46755 0.61724-0.16719 0.21202-0.3414 0.42016-0.54548 0.64116-0.20407 0.22101-0.43074 0.43661-0.67535 0.66484-0.24463 0.22824-0.51629 0.47865-0.80523 0.71229-0.28893 0.23364-0.59819 0.45139-0.9351 0.68861-0.33692 0.23713-0.70235 0.47356-1.091 0.7122-0.3886 0.23881-0.80278 0.49756-1.2468 0.73613-0.44401 0.23841-0.89964 0.47611-1.4027 0.71229-0.50302 0.23618-1.0447 0.45655-1.6104 0.6886-0.5657 0.23198-1.1603 0.4626-1.7923 0.68853-0.63202 0.22577-1.2982 0.44702-2.0001 0.66484-0.70188 0.21783-1.4325 0.43327-2.2079 0.64109-0.77541 0.20781-1.5892 0.42134-2.4417 0.61732-0.85253 0.19589-1.7422 0.38765-2.6754 0.56987-0.93319 0.18207-1.9177 0.35595-2.9352 0.52244-1.0175 0.16633-2.0897 0.32606-3.1949 0.47483-1.1053 0.14877-2.232 0.27441-3.4287 0.40355-1.1967 0.12921-2.4487 0.24842-3.7404 0.35626-1.2917 0.10776-2.6358 0.20042-4.0261 0.2849-1.3903 0.0844-2.8194 0.15433-4.3119 0.21361-1.4925 0.0596-3.0513 0.11055-4.6495 0.14249-1.5983 0.0318-3.2537 0.0445-4.9612 0.0469-1.7084 0-3.3635 0-4.9612-0.0238-1.5982-0.027-3.1312-0.0636-4.6236-0.11873-1.4925-0.0548-2.9216-0.13327-4.3119-0.21377-1.3903-0.0804-2.7344-0.18056-4.0261-0.2849-1.2917-0.10442-2.5437-0.20591-3.7404-0.33234-1.1967-0.12644-2.3494-0.25709-3.4547-0.40371-1.1052-0.14654-2.1515-0.31017-3.169-0.47483-1.0174-0.16474-2.002-0.34148-2.9352-0.52236-0.93314-0.18103-1.823-0.37462-2.6754-0.56987-0.85243-0.19518-1.6663-0.38607-2.4417-0.59356-0.77534-0.20758-1.506-0.42318-2.2079-0.64108-0.70187-0.21791-1.3682-0.43852-2.0001-0.66485-0.63195-0.22633-1.2266-0.45584-1.7923-0.68852-0.56569-0.23285-1.1075-0.47507-1.6105-0.71237-0.50301-0.23722-0.9847-0.47261-1.4286-0.71221-0.44396-0.23976-0.85823-0.47221-1.2468-0.71244-0.38858-0.24008-0.75408-0.49717-1.091-0.73597-0.3369-0.23873-0.64622-0.4769-0.9351-0.71237-0.28891-0.23539-0.56061-0.45846-0.80523-0.68853-0.24465-0.23014-0.44532-0.46553-0.64938-0.68852-0.20408-0.22307-0.40422-0.42715-0.57145-0.64108-0.16721-0.21386-0.30745-0.43796-0.44158-0.64109-0.13411-0.20312-0.25898-0.40315-0.36365-0.59356-0.10467-0.19056-0.20685-0.37009-0.28573-0.54619-0.07887-0.17611-0.12514-0.3387-0.18183-0.49851-0.05669-0.16006-0.11778-0.30938-0.15585-0.45123-0.03809-0.14194-0.05491-0.28149-0.07793-0.40355-0.02302-0.12215-0.04044-0.23205-0.05195-0.3325s-0.02247-0.18421-0.02597-0.26114c-0.0035-0.0771-0.000998-0.13828 0-0.18993 0.000997-0.0517-0.0019-0.0947 0-0.11881 0.0019-0.0246 0-0.0238 0-0.0238v-0.0238-0.0238-3.4428-3.4428-3.4428-3.4428-3.4428-3.4428-3.4191-3.4428-3.4428-3.4428-3.4428-3.4428-3.4428-3.4428-3.4428-3.4428-3.4428-3.4428-3.4428-3.4428-3.4428-3.4428-3.4428-3.4428-3.4191-3.4428-3.4428-3.4428-3.4428-3.4428-3.4428-0.85477-0.87851-0.85477-0.0237s-0.03101-0.49804-0.12988-1.116c-0.09887-0.61791-0.26167-1.3442-0.5195-1.852-0.29151-0.57406-0.85751-1.2202-1.3767-1.757-0.51917-0.53681-0.98705-0.94974-0.98705-0.94974l-0.46755 0.42738s0.45855 0.40639 0.96108 0.92601c0.50253 0.51961 1.0483 1.1725 1.2728 1.6146 0.1908 0.37574 0.34635 1.0906 0.44158 1.6858 0.09315 0.5822 0.15412 1.0241 0.15585 1.0447 0.000038 0.00047 0 0.0237 0 0.0237v0.83102 0.87851 0.85477 3.4428 3.4428 3.4428 3.4428 3.4428 3.4428 3.4191 3.4428 3.4428 3.4428 3.4428 3.4428 3.4428 3.4428 3.4428 3.4428 3.4428 3.4428 3.4428 3.4428 3.4428 3.4428 3.4428 3.4428 3.4191 3.4428 3.4428 3.4428 3.4428 3.4428 3.4191 0.0238c-0.0012 0.0103-0.02432 0-0.02597 0.0238-0.0027 0.035 0.0012 0.0798 0 0.14233-0.0012 0.0628-0.0042 0.14813 0 0.23753 0.0041 0.0892 0.01298 0.19518 0.02597 0.30866 0.01299 0.11333 0.05233 0.24413 0.07793 0.37987 0.02559 0.13581 0.03607 0.27147 0.07793 0.42739 0.04185 0.156 0.09411 0.32439 0.15585 0.49867 0.06174 0.17404 0.14852 0.35563 0.23378 0.54604 0.08525 0.19033 0.17338 0.389 0.28573 0.59364 0.11235 0.20447 0.24663 0.42444 0.38963 0.641 0.14298 0.21655 0.29036 0.43819 0.46755 0.66484 0.17717 0.22673 0.38263 0.45385 0.59743 0.68861 0.21482 0.23467 0.44542 0.47157 0.70133 0.7122 0.25593 0.24088 0.5307 0.46745 0.8312 0.71245 0.30053 0.24485 0.63846 0.51266 0.98705 0.75973 0.34862 0.24715 0.71676 0.48874 1.1169 0.73605 0.40017 0.24739 0.81754 0.49025 1.2728 0.73605 0.45527 0.2458 0.94076 0.49366 1.4546 0.73605 0.5139 0.24238 1.0604 0.47523 1.6364 0.71228 0.57604 0.23698 1.1765 0.48246 1.8183 0.71237 0.64182 0.22983 1.3149 0.444 2.0261 0.66476 0.71112 0.22085 1.4758 0.43121 2.2598 0.64117 0.78405 0.2098 1.607 0.42023 2.4676 0.61724 0.86059 0.19716 1.7607 0.38741 2.7014 0.56987 0.94072 0.18239 1.9107 0.35651 2.9352 0.52244 1.0245 0.16577 2.0831 0.32733 3.1949 0.47483 1.1118 0.14742 2.2778 0.27656 3.4807 0.40363 1.2028 0.12707 2.443 0.2512 3.7404 0.35618 1.2974 0.10482 2.6565 0.20408 4.0521 0.2849 1.3956 0.0808 2.8404 0.1351 4.3378 0.18993 1.4975 0.0548 3.0467 0.092 4.6495 0.11873 1.6033 0.0262 3.2502 0.0469 4.9612 0.0469 1.7119 0 3.3844-0.0151 4.9872-0.0469s3.1521-0.0831 4.6495-0.14249c1.4974-0.0596 2.9423-0.1289 4.3378-0.21369 1.3956-0.0847 2.7287-0.17659 4.0261-0.28498 1.2974-0.10816 2.5636-0.22633 3.7664-0.35611 1.2028-0.12985 2.3429-0.27766 3.4547-0.42738 1.1118-0.14957 2.1705-0.30739 3.1949-0.47484 1.0244-0.16752 2.0205-0.33877 2.9612-0.52235 0.94068-0.18365 1.8409-0.37216 2.7014-0.56988 0.86054-0.1978 1.6836-0.4072 2.4676-0.61732 0.78401-0.21012 1.5228-0.44407 2.2339-0.66484 0.71111-0.22061 1.3844-0.4355 2.0261-0.66477 0.64172-0.22943 1.2682-0.45242 1.8442-0.68852 0.57599-0.23627 1.0966-0.49486 1.6105-0.73613 0.51384-0.24119 0.99942-0.468 1.4546-0.71229 0.4552-0.24445 0.89862-0.49025 1.2988-0.73605 0.40014-0.2458 0.76836-0.49072 1.1169-0.73604 0.34856-0.24541 0.66059-0.49311 0.96108-0.73613 0.30049-0.24294 0.57528-0.49724 0.8312-0.73597 0.25595-0.23881 0.5125-0.456 0.7273-0.68861 0.2148-0.23268 0.39426-0.46386 0.57146-0.68852 0.17718-0.22466 0.35047-0.4502 0.49352-0.66485 0.14304-0.21456 0.25123-0.41467 0.36365-0.61732 0.1124-0.20249 0.22641-0.40513 0.31171-0.59364 0.0853-0.18842 0.14601-0.3735 0.2078-0.54603 0.0618-0.17253 0.11395-0.34426 0.15585-0.49867 0.0419-0.15433 0.0783-0.29301 0.1039-0.42731 0.0257-0.13447 0.039-0.26766 0.052-0.37995 0.0131-0.113 0.0216-0.19843 0.0259-0.2849 0.004-0.089 0.00083-0.1765 0-0.23753-0.00083-0.062 0.003-0.10522 0-0.14233-0.002-0.0151 0.00083-0.0151 0-0.0238v-0.0238-3.4191-3.4428-3.4428-3.4428-3.4428-3.4428-3.4191-3.4428-3.4428-3.4428-3.4428-3.4428-3.4428-3.4428-3.4428-3.4428-3.4428-3.4428-3.4428-3.4428-3.4428-3.4428-3.4428-3.4428-3.4191-3.4428-3.4428-3.4428-3.4428-3.4428-3.4428-0.85477-0.87851-0.83102-0.0237c0.002-0.0207 0.0216-0.43159 0.1039-0.97348 0.0842-0.555 0.24291-1.2195 0.4156-1.5671 0.24113-0.48527 0.83836-1.2138 1.3767-1.7808 0.53833-0.56692 1.013-0.99722 1.013-0.99722l-0.46755-0.42739z"
          />
          <g
              transform="matrix(.80299 0 0 .92363 6.8448 77.84)"
            >
            <path
                style="stroke:#000000;stroke-width:.68616;fill:none"
                d="m154.75 54.129c0 0.18516-0.11115 0.36812-0.32814 0.54845-0.21698 0.18033-0.53979 0.35801-0.9631 0.53261-0.42332 0.1746-0.94714 0.3461-1.5661 0.51407-0.619 0.16797-1.3332 0.33239-2.1372 0.49283-0.80404 0.16044-1.6979 0.31689-2.6764 0.4689-0.97842 0.15201-2.0414 0.29958-3.1835 0.44227-1.1422 0.14269-2.3635 0.28048-3.6588 0.41295-1.2952 0.13246-2.6644 0.25959-4.1021 0.38093s-2.9439 0.23689-4.5134 0.34621-3.2022 0.2124-4.8928 0.3088-3.4391 0.18611-5.2402 0.26869-3.6548 0.15802-5.5558 0.22588-3.8492 0.12814-5.8393 0.18038c-1.9902 0.05224-4.0222 0.09645-6.0909 0.13218s-4.174 0.06297-6.3106 0.08129c-2.1366 0.01831-4.3045 0.02769-6.4983 0.02769s-4.3617-0.0094-6.4983-0.02769c-2.1366-0.01831-4.2419-0.04556-6.3106-0.08129s-4.1008-0.07994-6.0909-0.13218-3.9384-0.11252-5.8393-0.18038c-1.901-0.06786-3.7546-0.1433-5.5558-0.22588-1.8011-0.08258-3.5496-0.17229-5.2402-0.26869s-3.3233-0.19948-4.8928-0.3088-3.0757-0.22487-4.5134-0.34621-2.8068-0.24846-4.1021-0.38093c-1.2952-0.13246-5.2323 5.783-6.2808 6.2992-1.0308 0.50751-0.83415 0.3648-1.6641-0.31549-0.79102-0.64841-0.76978-7.1474-1.5738-7.3078-0.80403-0.16044-1.5182-0.32486-2.1372-0.49283s-1.1428-0.33947-1.5661-0.51407c-0.42332-0.1746-0.74613-0.35228-0.96311-0.53261s-0.32814-0.36329-0.32814-0.54845 0.11115-0.36812 0.32814-0.54845c0.21698-0.18032 0.53979-0.35801 0.96311-0.53261s0.94713-0.3461 1.5661-0.51407c0.619-0.16797 1.3332-0.33239 2.1372-0.49283 0.80404-0.16044 1.6979-0.31689 2.6763-0.4689 0.97842-0.15201 2.0414-0.29958 3.1835-0.44227 1.1422-0.14269 2.3635-0.28048 3.6588-0.41295 1.2952-0.13246 2.6644-0.25959 4.1021-0.38093s2.9439-0.23689 4.5134-0.34621 3.2022-0.2124 4.8928-0.3088 3.4391-0.18611 5.2402-0.26869 3.6548-0.15802 5.5558-0.22588 3.8492-0.12814 5.8393-0.18038 4.0222-0.09645 6.0909-0.13218 4.174-0.06297 6.3106-0.08129c2.1366-0.01831 4.3045-0.02769 6.4983-0.02769s4.3617 0.0094 6.4983 0.02769c2.1366 0.01831 4.2419 0.04556 6.3106 0.08129s4.1008 0.07994 6.0909 0.13218 3.9384 0.11252 5.8393 0.18038c1.901 0.06786 3.7546 0.1433 5.5558 0.22588 1.8011 0.08258 3.5496 0.17229 5.2402 0.26869s3.3233 0.19948 4.8928 0.3088 3.0757 0.22487 4.5134 0.34621 2.8068 0.24846 4.1021 0.38093c1.2952 0.13246 2.5166 0.27026 3.6588 0.41295s2.2051 0.29026 3.1835 0.44227c0.97842 0.15201 1.8723 0.30846 2.6764 0.4689 0.80403 0.16044 1.5182 0.32486 2.1372 0.49283s1.1428 0.33947 1.5661 0.51407c0.42331 0.1746 0.74612 0.35228 0.9631 0.53261 0.21699 0.18033 0.32814 0.36329 0.32814 0.54845z"
                transform="matrix(1.0946 0 0 1 -10.417 789.03)"
            />
            <path
                style="stroke:#000000;stroke-width:.73578;fill:none"
                d="m158.85 44.259c0 0.1587-0.11136 0.31552-0.32875 0.47008-0.2174 0.15456-0.54081 0.30685-0.96493 0.4565-0.42411 0.14965-0.94892 0.29664-1.5691 0.44061-0.62017 0.14396-1.3357 0.28489-2.1412 0.42241-0.80555 0.13751-1.7011 0.2716-2.6814 0.40189-0.98026 0.13029-2.0452 0.25677-3.1895 0.37907s-2.368 0.2404-3.6657 0.35394c-1.2977 0.11353-2.6694 0.22249-4.1098 0.32649s-2.9495 0.20304-4.5219 0.29674-3.2082 0.18205-4.902 0.26467-3.4456 0.15951-5.2501 0.23029-3.6617 0.13544-5.5662 0.1936-3.8564 0.10982-5.8503 0.1546-4.0298 0.08267-6.1024 0.11329-4.1819 0.05397-6.3225 0.06967-4.3126 0.02374-6.5105 0.02374c-2.198 0-4.3699-0.008-6.5105-0.02374-2.1406-0.0157-4.2499-0.03905-6.3225-0.06967s-4.1085-0.06851-6.1024-0.11329-3.9458-0.09644-5.8503-0.1546-3.7617-0.12282-5.5662-0.1936-3.5563-0.14767-5.2501-0.23029-3.3296-0.17097-4.902-0.26467-3.0815-0.19274-4.5219-0.29674-2.8121-0.21296-4.1098-0.32649-1.5977-0.10393-2.742-0.22623-4.9802 6.8391-5.9604 6.7089c-0.98026-0.13029-0.78921-7.6077-1.5948-7.7452-0.80555-0.13751-0.76044-0.15073-1.3806-0.2947-0.62017-0.14396-1.145-0.29096-1.5691-0.44061-0.42411-0.14964-0.74753-0.30194-0.96492-0.4565s-0.32875-0.31138-0.32875-0.47008 0.11136-0.31552 0.32875-0.47008 0.54081-0.30685 0.96492-0.4565c0.42411-0.14964 0.94892-0.29664 1.5691-0.44061 0.62017-0.14396 1.3357-0.28489 2.1412-0.4224 0.80555-0.13751 1.7011-0.2716 2.6814-0.40189 0.98026-0.13029 2.0452-0.25677 3.1895-0.37907s2.368-0.2404 3.6657-0.35394c1.2977-0.11353 2.6694-0.22249 4.1098-0.32649s2.9495-0.20304 4.5219-0.29674c1.5724-0.09369 3.2082-0.18205 4.902-0.26467s3.4456-0.15951 5.2501-0.23029 3.6617-0.13544 5.5662-0.1936 3.8564-0.10982 5.8503-0.1546 4.0298-0.08267 6.1024-0.11329 4.1819-0.05397 6.3225-0.06967 4.3126-0.02374 6.5105-0.02374c2.198 0 4.3699 0.008 6.5105 0.02374 2.1406 0.0157 4.2499 0.03905 6.3225 0.06967s4.1085 0.06851 6.1024 0.11329 3.9458 0.09644 5.8503 0.1546 3.7617 0.12282 5.5662 0.1936 3.5563 0.14767 5.2501 0.23029 3.3296 0.17097 4.902 0.26467 3.0815 0.19274 4.5219 0.29674 2.8121 0.21296 4.1098 0.32649 2.5214 0.23164 3.6657 0.35394 2.2093 0.24878 3.1895 0.37907c0.98027 0.13029 1.8758 0.26438 2.6814 0.40189 0.80555 0.13751 1.5211 0.27844 2.1412 0.4224 0.62016 0.14396 1.145 0.29096 1.5691 0.44061 0.42412 0.14965 0.74753 0.30194 0.96493 0.4565 0.21739 0.15456 0.32875 0.31138 0.32875 0.47008z"
                transform="matrix(1.0578 0 0 .9 -11.265 803.34)"
            />
          </g
          >
          <path
              style="stroke:#000000;stroke-width:.61825;fill:none"
              d="m30.226 865.52c-0.11861-0.18843 1.0331-1.1615 2.7451-0.82542 1.5778 0.30973 1.738 3.4122 1.738 3.4122"
          />
        </g
        >
      </g
      >
    </g
    >
  </g
  >
  </g>

</svg>
