<svg xmlns="http://www.w3.org/2000/svg" width="112" height="136" viewBox="0 0 112 136">
  <defs>
    <clipPath id="wad">
      <path d="M24 58c0-10 7-18 16-22 4-11 16-18 29-18 10 0 20 4 26 10 10 0 18 8 18 18 0 9-6 16-15 20-5 8-15 12-26 12-11 0-21-4-27-11-12-1-21-9-21-21Z"/>
    </clipPath>
    <linearGradient id="outerFlame" x1="0" y1="1" x2="0.5" y2="0">
      <stop offset="0" stop-color="#f39a3b"/>
      <stop offset="1" stop-color="#ffef9b"/>
    </linearGradient>
    <linearGradient id="innerFlame" x1="0" y1="1" x2="0.5" y2="0">
      <stop offset="0" stop-color="#f5d468"/>
      <stop offset="1" stop-color="#fff7d0"/>
    </linearGradient>
  </defs>
  <path d="M56 118c10-9 16-18 16-28 0-10-5-18-12-25 1 10-4 15-7 20-4-5-8-10-7-18-7 8-6 17-6 24 0 11 6 19 16 27Z" fill="url(#outerFlame)" opacity="0.78"/>
  <path d="M55 109c6-5 10-11 10-18 0-6-3-11-7-15 0 6-3 9-5 13-3-4-5-7-4-11-4 5-4 10-4 14 0 7 4 12 10 17Z" fill="url(#innerFlame)" opacity="0.88"/>
  <path d="M24 58c0-10 7-18 16-22 4-11 16-18 29-18 10 0 20 4 26 10 10 0 18 8 18 18 0 9-6 16-15 20-5 8-15 12-26 12-11 0-21-4-27-11-12-1-21-9-21-21Z" fill="#aab3b9" opacity="0.15"/>
  <path d="M24 58c0-10 7-18 16-22 4-11 16-18 29-18 10 0 20 4 26 10 10 0 18 8 18 18 0 9-6 16-15 20-5 8-15 12-26 12-11 0-21-4-27-11-12-1-21-9-21-21Z" fill="none" stroke="#8d979e" stroke-width="1.2" opacity="0.5"/>
  <g clip-path="url(#wad)" fill="none" stroke-linecap="round" stroke-linejoin="round">
    <g stroke="#5d676f" stroke-width="1.25" opacity="0.78">
      <path d="M17 56c14-19 28-26 43-22 15 4 28 15 39 31"/>
      <path d="M22 70c13-13 27-19 42-18 15 2 27 9 37 20"/>
      <path d="M25 33c10 14 20 24 31 31 11 8 21 15 29 28"/>
      <path d="M40 18c0 16 4 29 14 40 9 10 14 20 14 31"/>
      <path d="M58 17c5 13 5 27 1 44"/>
    </g>
    <g stroke="#88919a" stroke-width="0.95" opacity="0.76">
      <path d="M18 46c14-10 27-14 40-11 13 3 26 10 38 24"/>
      <path d="M20 61c10 7 18 14 25 26"/>
      <path d="M27 76c12-9 24-13 36-11 13 1 24 7 35 17"/>
      <path d="M31 24c10 7 19 14 27 24 9 10 18 17 31 22"/>
      <path d="M46 17c-4 14-1 27 8 40 6 9 8 18 7 28"/>
    </g>
  </g>
</svg>
