<svg xmlns="http://www.w3.org/2000/svg" width="70" height="100" viewBox="0 0 70 100">
  <defs>
    <linearGradient id="outer" x1="0" y1="1" x2="0.5" y2="0">
      <stop offset="0" stop-color="#f39a3b"/>
      <stop offset="1" stop-color="#ffef9b"/>
    </linearGradient>
    <linearGradient id="inner" x1="0" y1="1" x2="0.5" y2="0">
      <stop offset="0" stop-color="#f5d468"/>
      <stop offset="1" stop-color="#fff7d0"/>
    </linearGradient>
  </defs>
  <path d="M35 96c16-14 25-28 25-43 0-16-8-28-20-39 2 17-7 24-12 32-5-8-12-15-11-29C7 30 9 43 9 55c0 17 10 30 26 41Z" fill="url(#outer)" opacity="0.88"/>
  <path d="M34 84c9-8 14-18 14-28 0-10-4-18-10-25 0 11-4 15-8 21-4-5-7-10-7-18-7 8-7 16-7 23 0 11 6 19 18 27Z" fill="url(#inner)" opacity="0.95"/>
</svg>
