<?xml version="1.0" encoding="UTF-8"?>
<svg xmlns="http://www.w3.org/2000/svg" width="92" height="58" viewBox="0 0 92 58">
  <defs>
    <clipPath id="emberClip">
      <path d="M11 34 C8 23 13 13 27 10 C45 5 67 8 79 14 C86 18 88 30 83 38 C77 47 58 51 33 50 C18 49 12 44 11 34 Z"/>
    </clipPath>
    <radialGradient id="emberGlow" cx="50%" cy="50%" r="50%">
      <stop offset="0" stop-color="#ffd18a" stop-opacity="0.95"/>
      <stop offset="0.5" stop-color="#ff9e40" stop-opacity="0.75"/>
      <stop offset="1" stop-color="#c4471f" stop-opacity="0"/>
    </radialGradient>
  </defs>
  <g clip-path="url(#emberClip)">
    <ellipse cx="28" cy="31" rx="11" ry="8" fill="url(#emberGlow)" opacity="0.85"/>
    <ellipse cx="47" cy="24" rx="9" ry="6.5" fill="url(#emberGlow)" opacity="0.62"/>
    <ellipse cx="61" cy="37" rx="10" ry="7" fill="url(#emberGlow)" opacity="0.72"/>
    <path d="M20 27 C28 24 35 24 44 28" fill="none" stroke="#ffd490" stroke-opacity="0.7" stroke-width="1.25" stroke-linecap="round"/>
    <path d="M41 21 C48 18 55 20 61 24" fill="none" stroke="#ffb562" stroke-opacity="0.55" stroke-width="1.15" stroke-linecap="round"/>
    <path d="M54 35 C61 33 67 34 73 38" fill="none" stroke="#ffb562" stroke-opacity="0.5" stroke-width="1.1" stroke-linecap="round"/>
  </g>
</svg>
